<svg width="411" height="412" viewBox="0 0 411 412" fill="none" xmlns="http://www.w3.org/2000/svg">
<rect width="82.2" height="82.2" transform="translate(0 0.5)" fill="#F4F0DE"/>
<rect width="82.2" height="82.2" transform="translate(82.2 0.5)" fill="#A49A6B"/>
<rect width="82.2" height="82.2" transform="translate(164.4 0.5)" fill="#F4F0DE"/>
<rect width="82.2" height="82.2" transform="translate(246.6 0.5)" fill="#A49A6B"/>
<rect width="82.2" height="82.2" transform="translate(328.8 0.5)" fill="#F4F0DE"/>
<rect width="82.2" height="82.2" transform="translate(0 82.7)" fill="#A49A6B"/>
<rect width="82.2" height="82.2" transform="translate(82.2 82.7)" fill="#F4F0DE"/>
<rect width="82.2" height="82.2" transform="translate(164.4 82.7)" fill="#A49A6B"/>
<rect width="82.2" height="82.2" transform="translate(246.6 82.7)" fill="#F4F0DE"/>
<rect width="82.2" height="82.2" transform="translate(328.8 82.7)" fill="#A49A6B"/>
<rect width="82.2" height="82.2" transform="translate(0 164.9)" fill="#F4F0DE"/>
<rect width="82.2" height="82.2" transform="translate(82.2 164.9)" fill="#A49A6B"/>
<rect width="82.2" height="82.2" transform="translate(164.4 164.9)" fill="#F4F0DE"/>
<rect width="82.2" height="82.2" transform="translate(246.6 164.9)" fill="#A49A6B"/>
<rect width="82.2" height="82.2" transform="translate(328.8 164.9)" fill="#F4F0DE"/>
<rect width="82.2" height="82.2" transform="translate(0 247.1)" fill="#A49A6B"/>
<rect width="82.2" height="82.2" transform="translate(82.2 247.1)" fill="#F4F0DE"/>
<rect width="82.2" height="82.2" transform="translate(164.4 247.1)" fill="#A49A6B"/>
<rect width="82.2" height="82.2" transform="translate(246.6 247.1)" fill="#F4F0DE"/>
<rect width="82.2" height="82.2" transform="translate(328.8 247.1)" fill="#A49A6B"/>
<rect width="82.2" height="82.2" transform="translate(0 329.3)" fill="#F4F0DE"/>
<rect width="82.2" height="82.2" transform="translate(82.2 329.3)" fill="#A49A6B"/>
<rect width="82.2" height="82.2" transform="translate(164.4 329.3)" fill="#F4F0DE"/>
<rect width="82.2" height="82.2" transform="translate(246.6 329.3)" fill="#A49A6B"/>
<rect width="82.2" height="82.2" transform="translate(328.8 329.3)" fill="#F4F0DE"/>
</svg>
